<?xml version="1.0" standalone="no"?>
<svg xmlns:xlink="http://www.w3.org/1999/xlink" id="wave" style="transform:rotate(180deg); transition: 0.3s" viewBox="0 0 1440 100" version="1.1" xmlns="http://www.w3.org/2000/svg"><defs><linearGradient id="sw-gradient-0" x1="0" x2="0" y1="1" y2="0"><stop stop-color="rgba(18.584, 18.215, 18.096, 0.99)" offset="0%"/><stop stop-color="rgba(11.754, 11.699, 11.578, 1)" offset="100%"/></linearGradient></defs><path style="transform:translate(0, 0px); opacity:1" fill="url(#sw-gradient-0)" d="M0,40L40,41.7C80,43,160,47,240,50C320,53,400,57,480,55C560,53,640,47,720,38.3C800,30,880,20,960,25C1040,30,1120,50,1200,56.7C1280,63,1360,57,1440,55C1520,53,1600,57,1680,58.3C1760,60,1840,60,1920,61.7C2000,63,2080,67,2160,60C2240,53,2320,37,2400,36.7C2480,37,2560,53,2640,58.3C2720,63,2800,57,2880,45C2960,33,3040,17,3120,11.7C3200,7,3280,13,3360,23.3C3440,33,3520,47,3600,43.3C3680,40,3760,20,3840,10C3920,0,4000,0,4080,15C4160,30,4240,60,4320,61.7C4400,63,4480,37,4560,23.3C4640,10,4720,10,4800,16.7C4880,23,4960,37,5040,38.3C5120,40,5200,30,5280,35C5360,40,5440,60,5520,60C5600,60,5680,40,5720,30L5760,20L5760,100L5720,100C5680,100,5600,100,5520,100C5440,100,5360,100,5280,100C5200,100,5120,100,5040,100C4960,100,4880,100,4800,100C4720,100,4640,100,4560,100C4480,100,4400,100,4320,100C4240,100,4160,100,4080,100C4000,100,3920,100,3840,100C3760,100,3680,100,3600,100C3520,100,3440,100,3360,100C3280,100,3200,100,3120,100C3040,100,2960,100,2880,100C2800,100,2720,100,2640,100C2560,100,2480,100,2400,100C2320,100,2240,100,2160,100C2080,100,2000,100,1920,100C1840,100,1760,100,1680,100C1600,100,1520,100,1440,100C1360,100,1280,100,1200,100C1120,100,1040,100,960,100C880,100,800,100,720,100C640,100,560,100,480,100C400,100,320,100,240,100C160,100,80,100,40,100L0,100Z"/></svg>